<svg width="32" height="32" viewBox="0 0 32 32" fill="none" xmlns="http://www.w3.org/2000/svg">
<g id="bank">
<path id="Vector" d="M2.66675 11.4258C2.66675 9.83084 3.30992 8.85342 4.64092 8.1127L10.1199 5.06358C12.9909 3.46586 14.4263 2.66699 16.0001 2.66699C17.5738 2.66699 19.0093 3.46586 21.8802 5.06358L27.3593 8.1127C28.6902 8.85342 29.3334 9.83086 29.3334 11.4258C29.3334 11.8582 29.3334 12.0745 29.2862 12.2522C29.0381 13.1863 28.1917 13.3337 27.3743 13.3337H4.62579C3.80844 13.3337 2.96211 13.1862 2.71397 12.2522C2.66675 12.0745 2.66675 11.8582 2.66675 11.4258Z" stroke="#62BE12" stroke-width="1.5"/>
<path id="Vector_2" d="M15.9946 9.33301H16.0066" stroke="#62BE12" stroke-opacity="0.4" stroke-width="2" stroke-linecap="round" stroke-linejoin="round"/>
<path id="Vector_3" d="M5.33325 13.333V24.6663M10.6666 13.333V24.6663" stroke="#62BE12" stroke-width="1.5"/>
<path id="Vector_4" d="M21.3333 13.333V24.6663M26.6666 13.333V24.6663" stroke="#62BE12" stroke-width="1.5"/>
<path id="Vector_5" d="M25.3334 24.667H6.66675C4.45761 24.667 2.66675 26.4578 2.66675 28.667C2.66675 29.0351 2.96523 29.3337 3.33341 29.3337H28.6667C29.0349 29.3337 29.3334 29.0351 29.3334 28.667C29.3334 26.4578 27.5426 24.667 25.3334 24.667Z" stroke="#62BE12" stroke-width="1.5"/>
</g>
</svg>
