<svg width="61" height="60" viewBox="0 0 61 60" fill="none" xmlns="http://www.w3.org/2000/svg">
<g id="Linear / Money / Bill List">
<path id="Vector" d="M42.3875 5H18.6125C15.7154 5 14.2668 5 13.0985 5.40652C10.883 6.17739 9.1437 7.96797 8.39489 10.2487C8 11.4514 8 12.9426 8 15.9252V50.9355C8 53.0811 10.4625 54.2195 12.0202 52.794C12.9354 51.9566 14.3146 51.9566 15.2298 52.794L16.4375 53.8992C18.0415 55.3669 20.4585 55.3669 22.0625 53.8992C23.6665 52.4314 26.0835 52.4314 27.6875 53.8992C29.2915 55.3669 31.7085 55.3669 33.3125 53.8992C34.9165 52.4314 37.3335 52.4314 38.9375 53.8992C40.5415 55.3669 42.9585 55.3669 44.5625 53.8992L45.7702 52.794C46.6854 51.9566 48.0646 51.9566 48.9798 52.794C50.5375 54.2195 53 53.0811 53 50.9355V15.9252C53 12.9426 53 11.4514 52.6051 10.2487C51.8563 7.96797 50.117 6.17739 47.9015 5.40652C46.7332 5 45.2846 5 42.3875 5Z" stroke="#20C375" stroke-width="2"/>
<path id="Vector_2" d="M26.75 27.5H43" stroke="#20C375" stroke-width="2" stroke-linecap="round"/>
<path id="Vector_3" d="M18 27.5H19.25" stroke="#20C375" stroke-width="2" stroke-linecap="round"/>
<path id="Vector_4" d="M18 18.75H19.25" stroke="#20C375" stroke-width="2" stroke-linecap="round"/>
<path id="Vector_5" d="M18 36.25H19.25" stroke="#20C375" stroke-width="2" stroke-linecap="round"/>
<path id="Vector_6" d="M26.75 18.75H43" stroke="#20C375" stroke-width="2" stroke-linecap="round"/>
<path id="Vector_7" d="M26.75 36.25H43" stroke="#20C375" stroke-width="2" stroke-linecap="round"/>
</g>
</svg>
