<svg width="32" height="32" viewBox="0 0 32 32" fill="none" xmlns="http://www.w3.org/2000/svg">
<g id="Linear / Money / Card">
<path id="Vector" d="M2.66675 15.9997C2.66675 10.9714 2.66675 8.4572 4.22885 6.8951C5.79094 5.33301 8.3051 5.33301 13.3334 5.33301H18.6667C23.6951 5.33301 26.2092 5.33301 27.7713 6.8951C29.3334 8.4572 29.3334 10.9714 29.3334 15.9997C29.3334 21.028 29.3334 23.5421 27.7713 25.1042C26.2092 26.6663 23.6951 26.6663 18.6667 26.6663H13.3334C8.3051 26.6663 5.79094 26.6663 4.22885 25.1042C2.66675 23.5421 2.66675 21.028 2.66675 15.9997Z" stroke="#62BE12" stroke-width="1.5"/>
<path id="Vector_2" d="M13.3333 21.333H8" stroke="#62BE12" stroke-opacity="0.4" stroke-width="1.5" stroke-linecap="round"/>
<path id="Vector_3" d="M18.6667 21.333H16.6667" stroke="#62BE12" stroke-opacity="0.4" stroke-width="1.5" stroke-linecap="round"/>
<path id="Vector_4" d="M2.66675 13.333L29.3334 13.333" stroke="#62BE12" stroke-width="1.5" stroke-linecap="round"/>
</g>
</svg>
