<svg width="16" height="17" viewBox="0 0 16 17" fill="none" xmlns="http://www.w3.org/2000/svg">
<g id="Cart">
<path id="Vector" d="M2.49421 12.8695C3.29396 13.8332 4.78243 13.8332 7.75937 13.8332H8.24016C11.2171 13.8332 12.7056 13.8332 13.5053 12.8695M2.49421 12.8695C1.69447 11.9059 1.96877 10.4429 2.51739 7.51696C2.90754 5.43618 3.10261 4.39579 3.84321 3.78115M2.49421 12.8695C2.49421 12.8695 2.49421 12.8695 2.49421 12.8695ZM13.5053 12.8695C14.3051 11.9059 14.0308 10.4429 13.4821 7.51697C13.092 5.43618 12.8969 4.39579 12.1563 3.78115M13.5053 12.8695C13.5053 12.8695 13.5053 12.8695 13.5053 12.8695ZM12.1563 3.78115C11.4157 3.1665 10.3572 3.1665 8.24016 3.1665H7.75937C5.64233 3.1665 4.58381 3.1665 3.84321 3.78115M12.1563 3.78115C12.1563 3.78115 12.1563 3.78115 12.1563 3.78115ZM3.84321 3.78115C3.84321 3.78115 3.84321 3.78115 3.84321 3.78115Z" stroke="#767C8C"/>
<path id="Vector_2" d="M6.11377 5.83317C6.38833 6.60997 7.12915 7.1665 7.99997 7.1665C8.87078 7.1665 9.6116 6.60997 9.88616 5.83317" stroke="#767C8C" stroke-linecap="round"/>
</g>
</svg>
