<svg width="84" height="93" viewBox="0 0 84 93" fill="none" xmlns="http://www.w3.org/2000/svg">
<g id="Group 3954">
<g id="Group 3953">
<path id="Vector" d="M28.8309 24.8354C28.8309 13.9701 30.3336 1.51429 36.4371 1.26547C42.5406 1.01664 44.1994 17.5805 44.1994 24.8354" stroke="url(#paint0_linear_1563_5742)" stroke-width="0.97578" stroke-linecap="round" stroke-linejoin="round"/>
<path id="Vector_2" d="M74.3556 92.8515H13.5645L19.0435 19.6973H66.8811L74.3556 92.8515Z" fill="url(#paint1_linear_1563_5742)"/>
<path id="Vector_3" d="M0.172852 92.8525H13.5654L19.0444 19.6982H9.08173L0.172852 92.8525Z" fill="url(#paint2_linear_1563_5742)"/>
<path id="Vector_4" d="M0.172852 92.8523L13.863 88.9053L13.5654 92.8523H0.172852Z" fill="#3B720B"/>
<g id="Vector_5" style="mix-blend-mode:multiply">
<path d="M38.8038 24.835C38.8048 25.0622 38.7382 25.2846 38.6126 25.4739C38.487 25.6631 38.308 25.8108 38.0983 25.8982C37.8886 25.9856 37.6577 26.0087 37.4348 25.9647C37.2119 25.9206 37.0072 25.8113 36.8466 25.6506C36.6859 25.49 36.5766 25.2853 36.5325 25.0624C36.4885 24.8395 36.5116 24.6086 36.599 24.3989C36.6863 24.1892 36.834 24.0102 37.0233 23.8846C37.2126 23.759 37.435 23.6924 37.6622 23.6934C37.9645 23.6947 38.2542 23.8154 38.468 24.0292C38.6818 24.243 38.8025 24.5327 38.8038 24.835Z" fill="#828282"/>
</g>
<g id="Vector_6" style="mix-blend-mode:multiply">
<path d="M54.172 24.835C54.1729 25.0622 54.1064 25.2846 53.9808 25.4739C53.8552 25.6631 53.6762 25.8108 53.4665 25.8982C53.2568 25.9856 53.0258 26.0087 52.803 25.9647C52.5801 25.9206 52.3754 25.8113 52.2147 25.6506C52.0541 25.49 51.9448 25.2853 51.9007 25.0624C51.8566 24.8395 51.8797 24.6086 51.9671 24.3989C52.0545 24.1892 52.2022 24.0102 52.3915 23.8846C52.5808 23.759 52.8031 23.6924 53.0303 23.6934C53.3327 23.6947 53.6224 23.8154 53.8362 24.0292C54.05 24.243 54.1707 24.5327 54.172 24.835Z" fill="#828282"/>
</g>
<path id="Vector_7" d="M37.6621 24.8354C37.6621 13.9701 39.1648 1.51429 45.2683 1.26547C51.3718 1.01664 53.0306 17.5805 53.0306 24.8354" stroke="url(#paint3_linear_1563_5742)" stroke-width="0.97578" stroke-linecap="round" stroke-linejoin="round"/>
</g>
<g id="Group 3952">
<path id="Vector_8" d="M84.0005 56.5471C84.0005 58.1084 81.8489 59.3135 81.3903 60.7235C80.9317 62.1335 81.9318 64.4168 81.0488 65.6317C80.1657 66.8465 77.7067 66.5782 76.4821 67.4759C75.2575 68.3736 74.7794 70.774 73.3206 71.2522C71.8618 71.7303 70.1054 70.0519 68.5441 70.0519C66.9829 70.0519 65.1728 71.7059 63.7628 71.2522C62.3528 70.7984 61.8112 68.359 60.6061 67.4759C59.4011 66.5928 56.9323 66.8514 56.0395 65.6317C55.1467 64.4119 56.1712 62.1823 55.6931 60.7235C55.215 59.2647 53.0878 58.1084 53.0878 56.5471C53.0878 54.9859 55.2393 53.7808 55.6931 52.3708C56.1468 50.9608 55.1515 48.6775 56.0395 47.4577C56.9275 46.238 59.3767 46.5112 60.6061 45.6184C61.8356 44.7255 62.304 42.3154 63.7628 41.8421C65.2216 41.3689 66.9829 43.0423 68.5441 43.0423C70.1054 43.0423 71.9106 41.3835 73.3206 41.8421C74.7306 42.3007 75.2721 44.7353 76.4821 45.6184C77.6921 46.5015 80.1559 46.2331 81.0488 47.4626C81.9416 48.6921 80.917 50.912 81.3903 52.3708C81.8635 53.8296 84.0005 54.9859 84.0005 56.5471Z" fill="url(#paint4_linear_1563_5742)"/>
<g id="Vector_9" filter="url(#filter0_d_1563_5742)">
<path d="M67.5299 62.5727C67.0887 62.5724 66.6658 62.3969 66.3541 62.0848L61.1287 56.8595C60.8427 56.5419 60.6895 56.1266 60.7006 55.6993C60.7118 55.272 60.8866 54.8653 61.1888 54.5631C61.491 54.2608 61.8978 54.0861 62.3251 54.0749C62.7524 54.0637 63.1676 54.217 63.4853 54.503L67.5299 58.5525L75.0678 51.0048C75.3854 50.7188 75.8007 50.5656 76.228 50.5767C76.6553 50.5879 77.062 50.7626 77.3642 51.0649C77.6665 51.3671 77.8412 51.7738 77.8524 52.2011C77.8636 52.6284 77.7103 53.0437 77.4243 53.3613L68.7252 62.0848C68.5683 62.2415 68.3818 62.3653 68.1766 62.4491C67.9714 62.5328 67.7515 62.5748 67.5299 62.5727Z" fill="white"/>
</g>
</g>
</g>
<defs>
<filter id="filter0_d_1563_5742" x="56.7812" y="49.2699" width="24.9906" height="19.8348" filterUnits="userSpaceOnUse" color-interpolation-filters="sRGB">
<feFlood flood-opacity="0" result="BackgroundImageFix"/>
<feColorMatrix in="SourceAlpha" type="matrix" values="0 0 0 0 0 0 0 0 0 0 0 0 0 0 0 0 0 0 127 0" result="hardAlpha"/>
<feOffset dy="2.61258"/>
<feGaussianBlur stdDeviation="1.95944"/>
<feComposite in2="hardAlpha" operator="out"/>
<feColorMatrix type="matrix" values="0 0 0 0 0 0 0 0 0 0 0 0 0 0 0 0 0 0 0.3 0"/>
<feBlend mode="normal" in2="BackgroundImageFix" result="effect1_dropShadow_1563_5742"/>
<feBlend mode="normal" in="SourceGraphic" in2="effect1_dropShadow_1563_5742" result="shape"/>
</filter>
<linearGradient id="paint0_linear_1563_5742" x1="28.343" y1="13.048" x2="44.6873" y2="13.048" gradientUnits="userSpaceOnUse">
<stop stop-color="#FFE973"/>
<stop offset="1" stop-color="#DBAE00"/>
</linearGradient>
<linearGradient id="paint1_linear_1563_5742" x1="43.96" y1="19.6973" x2="43.96" y2="92.8515" gradientUnits="userSpaceOnUse">
<stop stop-color="#62BE12"/>
<stop offset="1" stop-color="#58AB10"/>
</linearGradient>
<linearGradient id="paint2_linear_1563_5742" x1="11.651" y1="30.1048" x2="-13.4362" y2="44.6646" gradientUnits="userSpaceOnUse">
<stop stop-color="#4E980E"/>
<stop offset="1" stop-color="#3B720B"/>
</linearGradient>
<linearGradient id="paint3_linear_1563_5742" x1="37.1742" y1="13.048" x2="53.5185" y2="13.048" gradientUnits="userSpaceOnUse">
<stop stop-color="#FFE973"/>
<stop offset="1" stop-color="#DBAE00"/>
</linearGradient>
<linearGradient id="paint4_linear_1563_5742" x1="57.0733" y1="46.4779" x2="74.5239" y2="66.8131" gradientUnits="userSpaceOnUse">
<stop stop-color="#FFE973"/>
<stop offset="1" stop-color="#DBAE00"/>
</linearGradient>
</defs>
</svg>
