<svg width="126" height="125" viewBox="0 0 126 125" fill="none" xmlns="http://www.w3.org/2000/svg">
<g clip-path="url(#clip0_1217_2071)">
<g opacity="0.05">
<rect x="0.5" width="125" height="125" rx="62.5" fill="#20C375"/>
</g>
<g opacity="0.1">
<rect x="12.4999" y="12" width="101" height="101" rx="50.5" fill="#20C375"/>
</g>
<path d="M88.4995 63C88.4995 76.8071 77.3066 88 63.4995 88C49.6924 88 38.4995 76.8071 38.4995 63C38.4995 49.1929 49.6924 38 63.4995 38C77.3066 38 88.4995 49.1929 88.4995 63Z" fill="#20C375"/>
<path d="M73.5763 55.4242C74.3085 56.1564 74.3085 57.3436 73.5763 58.0758L61.0763 70.5758C60.3441 71.3081 59.1569 71.3081 58.4247 70.5758L53.4247 65.5758C52.6924 64.8436 52.6924 63.6564 53.4247 62.9242C54.1569 62.1919 55.3441 62.1919 56.0763 62.9242L59.7505 66.5983L65.3376 61.0113L70.9247 55.4242C71.6569 54.6919 72.8441 54.6919 73.5763 55.4242Z" fill="white"/>
</g>
<defs>
<clipPath id="clip0_1217_2071">
<rect width="125" height="125" fill="white" transform="translate(0.5)"/>
</clipPath>
</defs>
</svg>
