<svg width="20" height="20" viewBox="0 0 20 20" fill="none" xmlns="http://www.w3.org/2000/svg">
<g id="Outline / Map &#38; Location / Map Point">
<path id="Vector" fill-rule="evenodd" clip-rule="evenodd" d="M2.7085 8.45258C2.7085 4.37006 5.96267 1.0415 10.0002 1.0415C14.0377 1.0415 17.2918 4.37006 17.2918 8.45258C17.2918 10.4235 16.7301 12.5398 15.7372 14.3681C14.7455 16.1941 13.2965 17.7809 11.4839 18.6281C10.5423 19.0682 9.45802 19.0682 8.5164 18.6281C6.70381 17.7809 5.25484 16.1941 4.26313 14.3681C3.27019 12.5398 2.7085 10.4235 2.7085 8.45258ZM10.0002 2.2915C6.67386 2.2915 3.9585 5.03941 3.9585 8.45258C3.9585 10.2001 4.46069 12.1127 5.36158 13.7715C6.2637 15.4325 7.53851 16.7912 9.0457 17.4957C9.65187 17.779 10.3485 17.779 10.9546 17.4957C12.4618 16.7912 13.7366 15.4325 14.6387 13.7715C15.5396 12.1127 16.0418 10.2001 16.0418 8.45258C16.0418 5.03941 13.3265 2.2915 10.0002 2.2915ZM10.0002 6.45817C8.96463 6.45817 8.12516 7.29764 8.12516 8.33317C8.12516 9.3687 8.96463 10.2082 10.0002 10.2082C11.0357 10.2082 11.8752 9.3687 11.8752 8.33317C11.8752 7.29764 11.0357 6.45817 10.0002 6.45817ZM6.87516 8.33317C6.87516 6.60728 8.27427 5.20817 10.0002 5.20817C11.7261 5.20817 13.1252 6.60728 13.1252 8.33317C13.1252 10.0591 11.7261 11.4582 10.0002 11.4582C8.27427 11.4582 6.87516 10.0591 6.87516 8.33317Z" fill="#474C59"/>
</g>
</svg>
