<svg width="16" height="16" viewBox="0 0 16 16" fill="none" xmlns="http://www.w3.org/2000/svg">
<g id="Bold / Like / Star">
<path id="Vector" d="M6.10227 3.6055C6.9467 2.09067 7.36892 1.33325 8.00016 1.33325C8.6314 1.33325 9.05362 2.09067 9.89805 3.6055L10.1165 3.99741C10.3565 4.42788 10.4765 4.64311 10.6635 4.78512C10.8506 4.92714 11.0836 4.97985 11.5496 5.08528L11.9738 5.18127C13.6136 5.55229 14.4335 5.7378 14.6285 6.36507C14.8236 6.99235 14.2647 7.64597 13.1468 8.9532L12.8575 9.2914C12.5399 9.66288 12.381 9.84861 12.3096 10.0784C12.2381 10.3082 12.2621 10.556 12.3102 11.0516L12.3539 11.5028C12.5229 13.247 12.6074 14.1191 12.0967 14.5067C11.586 14.8944 10.8184 14.5409 9.28305 13.834L8.88584 13.6511C8.44955 13.4503 8.2314 13.3498 8.00016 13.3498C7.76893 13.3498 7.55078 13.4503 7.11449 13.6511L6.71728 13.834C5.18195 14.5409 4.41428 14.8944 3.90359 14.5067C3.39291 14.1191 3.47742 13.247 3.64643 11.5029L3.69015 11.0516C3.73818 10.556 3.76219 10.3082 3.69074 10.0784C3.61928 9.84861 3.46045 9.66288 3.14277 9.2914L2.85356 8.9532C1.73566 7.64597 1.17671 6.99235 1.37178 6.36507C1.56684 5.7378 2.38673 5.55229 4.02652 5.18127L4.45075 5.08528C4.91673 4.97985 5.14972 4.92714 5.33679 4.78512C5.52387 4.64311 5.64385 4.42788 5.88381 3.99741L6.10227 3.6055Z" fill="#FFC107"/>
</g>
</svg>
