<svg width="32" height="22" viewBox="0 0 32 22" fill="none" xmlns="http://www.w3.org/2000/svg">
<g clip-path="url(#clip0_1465_5141)">
<mask id="mask0_1465_5141" style="mask-type:alpha" maskUnits="userSpaceOnUse" x="0" y="0" width="32" height="22">
<path d="M28.9524 0H3.04762C1.36447 0 0 1.3133 0 2.93333V19.0667C0 20.6867 1.36447 22 3.04762 22H28.9524C30.6355 22 32 20.6867 32 19.0667V2.93333C32 1.3133 30.6355 0 28.9524 0Z" fill="white"/>
</mask>
<g mask="url(#mask0_1465_5141)">
<path d="M28.9524 0H3.04762C1.36447 0 0 1.3133 0 2.93333V19.0667C0 20.6867 1.36447 22 3.04762 22H28.9524C30.6355 22 32 20.6867 32 19.0667V2.93333C32 1.3133 30.6355 0 28.9524 0Z" fill="white"/>
<path fill-rule="evenodd" clip-rule="evenodd" d="M0 0H13.7143V10.2667H0V0Z" fill="#444379"/>
<path fill-rule="evenodd" clip-rule="evenodd" d="M1.52393 1.4668V2.93346H3.04774V1.4668H1.52393ZM4.57154 1.4668V2.93346H6.09535V1.4668H4.57154ZM7.61916 1.4668V2.93346H9.14297V1.4668H7.61916ZM10.6668 1.4668V2.93346H12.1906V1.4668H10.6668ZM9.14297 2.93346V4.40013H10.6668V2.93346H9.14297ZM6.09535 2.93346V4.40013H7.61916V2.93346H6.09535ZM3.04774 2.93346V4.40013H4.57154V2.93346H3.04774ZM1.52393 4.40013V5.8668H3.04774V4.40013H1.52393ZM4.57154 4.40013V5.8668H6.09535V4.40013H4.57154ZM7.61916 4.40013V5.8668H9.14297V4.40013H7.61916ZM10.6668 4.40013V5.8668H12.1906V4.40013H10.6668ZM1.52393 7.33346V8.80013H3.04774V7.33346H1.52393ZM4.57154 7.33346V8.80013H6.09535V7.33346H4.57154ZM7.61916 7.33346V8.80013H9.14297V7.33346H7.61916ZM10.6668 7.33346V8.80013H12.1906V7.33346H10.6668ZM9.14297 5.8668V7.33346H10.6668V5.8668H9.14297ZM6.09535 5.8668V7.33346H7.61916V5.8668H6.09535ZM3.04774 5.8668V7.33346H4.57154V5.8668H3.04774Z" fill="#A7B6E7"/>
<path fill-rule="evenodd" clip-rule="evenodd" d="M13.7143 0V1.46667H32V0H13.7143ZM13.7143 2.93333V4.4H32V2.93333H13.7143ZM13.7143 5.86667V7.33333H32V5.86667H13.7143ZM13.7143 8.8V10.2667H32V8.8H13.7143ZM0 11.7333V13.2H32V11.7333H0ZM0 14.6667V16.1333H32V14.6667H0ZM0 17.6V19.0667H32V17.6H0ZM0 20.5333V22H32V20.5333H0Z" fill="#ED4C49"/>
<path d="M28.9522 0.733398H3.04743C1.78507 0.733398 0.761719 1.71837 0.761719 2.9334V19.0667C0.761719 20.2818 1.78507 21.2667 3.04743 21.2667H28.9522C30.2146 21.2667 31.2379 20.2818 31.2379 19.0667V2.9334C31.2379 1.71837 30.2146 0.733398 28.9522 0.733398Z" stroke="black" stroke-opacity="0.1"/>
</g>
</g>
<defs>
<clipPath id="clip0_1465_5141">
<rect width="32" height="22" fill="white"/>
</clipPath>
</defs>
</svg>
