<svg width="32" height="32" viewBox="0 0 32 32" fill="none" xmlns="http://www.w3.org/2000/svg">
<g id="Linear / Money / Wad Of Money">
<path id="Vector" d="M12.0001 25.3337C8.25485 25.3337 6.38223 25.3337 5.03704 24.4348C4.45469 24.0457 3.95469 23.5457 3.56558 22.9634C2.66675 21.6182 2.66675 19.7456 2.66675 16.0003C2.66675 12.2551 2.66675 10.3825 3.56558 9.03728C3.95469 8.45494 4.45469 7.95493 5.03704 7.56582C6.38223 6.66699 8.25485 6.66699 12.0001 6.66699L20.0001 6.66699C23.7453 6.66699 25.6179 6.66699 26.9631 7.56582C27.5455 7.95493 28.0455 8.45494 28.4346 9.03728C29.3334 10.3825 29.3334 12.2551 29.3334 16.0003C29.3334 19.7456 29.3334 21.6182 28.4346 22.9634C28.0455 23.5457 27.5455 24.0457 26.9631 24.4348C25.6179 25.3337 23.7453 25.3337 20.0001 25.3337H12.0001Z" stroke="#62BE12" stroke-width="1.5"/>
<path id="Vector_2" opacity="0.4" d="M12 12C9.79086 12 8 13.7909 8 16C8 18.2091 9.79086 20 12 20" stroke="#62BE12" stroke-width="1.5"/>
<path id="Vector_3" opacity="0.4" d="M20 12C22.2091 12 24 13.7909 24 16C24 18.2091 22.2091 20 20 20" stroke="#62BE12" stroke-width="1.5"/>
<path id="Vector_4" d="M12 6.66699V24.667" stroke="#62BE12" stroke-width="1.5" stroke-linecap="round"/>
<path id="Vector_5" d="M20 6.66699V24.667" stroke="#62BE12" stroke-width="1.5" stroke-linecap="round"/>
</g>
</svg>
